# xmcd CD database file
#
# Track frame offsets:
#	150
#	17123
#	29446
#	45747
#	63625
#	74630
#	87057
#	114107
#	125182
#	146733
#	163458
#	183922
#	218641
#	235300
#
# Disc length: 3359 seconds
#
# Revision: 0
# Processed by: cddbd v1.5.2PL0 Copyright (c) Steve Scherf et al.
# Submitted via: CDex 1.70beta2
#
DISCID=d10d1d0e
DTITLE=Ludwig Seuss and friends - the downhill sessions
DYEAR=2010
DGENRE=Blues
TTITLE0=Downhill Boogaloo
TTITLE1=How Long Has That Train Been Gone
TTITLE2=The Moon Is Full Again
TTITLE3=Big Mamou
TTITLE4=Ms. Lini's Smile
TTITLE5=Maybellene
TTITLE6=Where Are My Friends
TTITLE7=Alrighty
TTITLE8=Love Potion #9
TTITLE9=4 Winds
TTITLE10=School Days
TTITLE11=Christo Redentor
TTITLE12=Eddie's Groove
TTITLE13=Würmtal Stomp
EXTD=YEAR: 2010
EXTT0=
EXTT1=
EXTT2=
EXTT3=
EXTT4=
EXTT5=
EXTT6=
EXTT7=
EXTT8=
EXTT9=
EXTT10=
EXTT11=
EXTT12=
EXTT13=
PLAYORDER=
